<svg width="800" height="600" xmlns="http://www.w3.org/2000/svg" style="background-color:#121212">
        <style>
            text { font-family: Consolas, monospace; fill: #e0e0e0; }
            .title { font-size: 28px; font-weight: bold; fill: #61dafb; }
            .section-title { font-size: 14px; font-weight: bold; fill: #ffeb3b; }
            .card { fill: #1e1e1e; stroke: #333; stroke-width: 1; rx: 10; }
            .small-text { font-size: 10px; fill: #aaa; }
        </style>
        
        <!-- Main Title -->
        <text x="400" y="40" text-anchor="middle" class="title">Behavoral Patterns (Day 9)</text>

        <!-- 1. Strategy -->
        <rect x="20" y="70" width="240" height="150" class="card" />
        <text x="140" y="95" text-anchor="middle" class="section-title">Strategy</text>
        <text x="140" y="115" text-anchor="middle" class="small-text">Swap Algorithms</text>
        <rect x="50" y="130" width="60" height="40" fill="#333" stroke="#4caf50" stroke-dasharray="4"/>
        <text x="80" y="155" text-anchor="middle" font-size="20">🔄</text>
        <rect x="170" y="130" width="60" height="40" fill="#333" stroke="#61dafb"/>
        <rect x="180" y="130" width="60" height="40" fill="#333" stroke="#f44336" transform="translate(10, 10)" opacity="0.5"/>

        <!-- 2. Observer -->
        <rect x="280" y="70" width="240" height="150" class="card" />
        <text x="400" y="95" text-anchor="middle" class="section-title">Observer</text>
        <text x="400" y="115" text-anchor="middle" class="small-text">Pub/Sub Notification</text>
        <circle cx="400" cy="150" r="15" fill="#f44336" /> <!-- Subject -->
        <line x1="400" y1="150" x2="350" y2="180" stroke="#555" stroke-width="2" marker-end="url(#arrow)"/>
        <line x1="400" y1="150" x2="450" y2="180" stroke="#555" stroke-width="2" marker-end="url(#arrow)"/>
        <circle cx="350" cy="180" r="10" fill="#61dafb" />
        <circle cx="450" cy="180" r="10" fill="#61dafb" />

        <!-- 3. Command -->
        <rect x="540" y="70" width="240" height="150" class="card" />
        <text x="660" y="95" text-anchor="middle" class="section-title">Command</text>
        <text x="660" y="115" text-anchor="middle" class="small-text">Request as Object (Undo)</text>
        <rect x="620" y="140" width="80" height="30" fill="#c792ea" rx="5"/>
        <text x="660" y="160" text-anchor="middle" fill="#111" font-size="10">Execute()</text>
        <text x="660" y="190" text-anchor="middle" font-size="12">↩ Undo</text>

        <!-- 4. State -->
        <rect x="140" y="240" width="240" height="150" class="card" />
        <text x="260" y="265" text-anchor="middle" class="section-title">State</text>
        <text x="260" y="285" text-anchor="middle" class="small-text">Behavior changes with State</text>
        <circle cx="220" cy="320" r="20" fill="none" stroke="#ffeb3b"/>
        <text x="220" y="325" text-anchor="middle" font-size="10" fill="#ffeb3b">Draft</text>
        <line x1="240" y1="320" x2="280" y2="320" stroke="#fff" marker-end="url(#arrow)"/>
        <circle cx="300" cy="320" r="20" fill="none" stroke="#4caf50"/>
        <text x="300" y="325" text-anchor="middle" font-size="10" fill="#4caf50">Pub</text>

        <!-- 5. Template Method -->
        <rect x="420" y="240" width="240" height="150" class="card" />
        <text x="540" y="265" text-anchor="middle" class="section-title">Template Method</text>
        <text x="540" y="285" text-anchor="middle" class="small-text">Algorithm Skeleton</text>
        <rect x="500" y="310" width="80" height="15" fill="#444"/>
        <rect x="500" y="330" width="80" height="15" fill="#61dafb"/>
        <rect x="500" y="350" width="80" height="15" fill="#444"/>
        <text x="590" y="340" font-size="10" fill="#61dafb">← Varies</text>

        <defs>
            <marker id="arrow" markerWidth="10" markerHeight="10" refX="9" refY="3" orient="auto" markerUnits="strokeWidth">
                <path d="M0,0 L0,6 L9,3 z" fill="#888" />
            </marker>
        </defs>
    </svg>