<svg width="600" height="600" xmlns="http://www.w3.org/2000/svg" style="background-color:#ffffff;"><rect width="100%" height="100%" fill="#ffffff"/><text x="50" y="50" font-family="Segoe UI, sans-serif" font-size="24" fill="#333333" font-weight="bold">H3 Hierarchy: Aperture 7 🌸</text><text x="50" y="80" font-family="Segoe UI, sans-serif" font-size="14" fill="#666666">1 Parent Hexagon ≈ 7 Child Hexagons</text><polygon points="473.20508075688775,220.0 473.20508075688775,420.0 300.0,520.0 126.79491924311225,420.0 126.79491924311228,219.99999999999997 299.99999999999994,120.0" fill="#f3f4f6" stroke="#9ca3af" stroke-width="4" opacity="1.0"/><text x="260" y="160" font-family="Segoe UI, sans-serif" font-size="16" fill="#6b7280" font-weight="bold">Parent (Res N)</text><polygon points="366.6173387526491,281.53846153846155 366.6173387526491,358.46153846153845 300.0,396.9230769230769 233.38266124735088,358.46153846153845 233.38266124735088,281.53846153846155 300.0,243.0769230769231" fill="#dbeafe" stroke="#2563eb" stroke-width="2" opacity="1.0"/><polygon points="499.85201625794735,281.53846153846155 499.85201625794735,358.46153846153845 433.23467750529824,396.9230769230769 366.6173387526491,358.46153846153845 366.6173387526491,281.53846153846155 433.23467750529824,243.0769230769231" fill="#dbeafe" stroke="#2563eb" stroke-width="2" opacity="1.0"/><polygon points="433.23467750529824,396.9230769230769 433.23467750529824,473.8461538461538 366.6173387526491,512.3076923076923 300.0,473.8461538461538 300.0,396.9230769230769 366.6173387526491,358.46153846153845" fill="#dbeafe" stroke="#2563eb" stroke-width="2" opacity="1.0"/><polygon points="300.00000000000006,396.9230769230769 300.00000000000006,473.8461538461538 233.3826612473509,512.3076923076923 166.76532249470176,473.8461538461538 166.7653224947018,396.9230769230769 233.3826612473509,358.46153846153845" fill="#dbeafe" stroke="#2563eb" stroke-width="2" opacity="1.0"/><polygon points="233.38266124735088,281.53846153846155 233.38266124735088,358.46153846153845 166.76532249470176,396.9230769230769 100.14798374205263,358.46153846153845 100.14798374205265,281.53846153846155 166.76532249470176,243.0769230769231" fill="#dbeafe" stroke="#2563eb" stroke-width="2" opacity="1.0"/><polygon points="299.99999999999994,166.1538461538462 299.99999999999994,243.0769230769231 233.38266124735082,281.53846153846155 166.7653224947017,243.0769230769231 166.7653224947017,166.1538461538462 233.38266124735082,127.69230769230772" fill="#dbeafe" stroke="#2563eb" stroke-width="2" opacity="1.0"/><polygon points="433.23467750529824,166.1538461538462 433.23467750529824,243.0769230769231 366.6173387526491,281.53846153846155 300.0,243.0769230769231 300.0,166.1538461538462 366.6173387526491,127.69230769230772" fill="#dbeafe" stroke="#2563eb" stroke-width="2" opacity="1.0"/><text x="270" y="325" font-family="Segoe UI, sans-serif" font-size="12" fill="#1e40af">Center</text><text x="50" y="550" font-family="Segoe UI, sans-serif" font-size="14" fill="#666666">Notice: Children don't fit perfectly! (The "Fractal" Edge)</text></svg>