<svg width="800" height="600" xmlns="http://www.w3.org/2000/svg" style="background-color:#e5e7eb;"><rect width="100%" height="100%" fill="#f3f4f6"/><line x1="0" y1="0" x2="0" y2="600" stroke="#e5e7eb" stroke-width="8"/><line x1="0" y1="0" x2="0" y2="600" stroke="#ffffff" stroke-width="6"/><line x1="100" y1="0" x2="100" y2="600" stroke="#e5e7eb" stroke-width="8"/><line x1="100" y1="0" x2="100" y2="600" stroke="#ffffff" stroke-width="6"/><line x1="200" y1="0" x2="200" y2="600" stroke="#e5e7eb" stroke-width="8"/><line x1="200" y1="0" x2="200" y2="600" stroke="#ffffff" stroke-width="6"/><line x1="300" y1="0" x2="300" y2="600" stroke="#e5e7eb" stroke-width="8"/><line x1="300" y1="0" x2="300" y2="600" stroke="#ffffff" stroke-width="6"/><line x1="400" y1="0" x2="400" y2="600" stroke="#e5e7eb" stroke-width="8"/><line x1="400" y1="0" x2="400" y2="600" stroke="#ffffff" stroke-width="6"/><line x1="500" y1="0" x2="500" y2="600" stroke="#e5e7eb" stroke-width="8"/><line x1="500" y1="0" x2="500" y2="600" stroke="#ffffff" stroke-width="6"/><line x1="600" y1="0" x2="600" y2="600" stroke="#e5e7eb" stroke-width="8"/><line x1="600" y1="0" x2="600" y2="600" stroke="#ffffff" stroke-width="6"/><line x1="700" y1="0" x2="700" y2="600" stroke="#e5e7eb" stroke-width="8"/><line x1="700" y1="0" x2="700" y2="600" stroke="#ffffff" stroke-width="6"/><line x1="0" y1="0" x2="800" y2="0" stroke="#e5e7eb" stroke-width="8"/><line x1="0" y1="0" x2="800" y2="0" stroke="#ffffff" stroke-width="6"/><line x1="0" y1="100" x2="800" y2="100" stroke="#e5e7eb" stroke-width="8"/><line x1="0" y1="100" x2="800" y2="100" stroke="#ffffff" stroke-width="6"/><line x1="0" y1="200" x2="800" y2="200" stroke="#e5e7eb" stroke-width="8"/><line x1="0" y1="200" x2="800" y2="200" stroke="#ffffff" stroke-width="6"/><line x1="0" y1="300" x2="800" y2="300" stroke="#e5e7eb" stroke-width="8"/><line x1="0" y1="300" x2="800" y2="300" stroke="#ffffff" stroke-width="6"/><line x1="0" y1="400" x2="800" y2="400" stroke="#e5e7eb" stroke-width="8"/><line x1="0" y1="400" x2="800" y2="400" stroke="#ffffff" stroke-width="6"/><line x1="0" y1="500" x2="800" y2="500" stroke="#e5e7eb" stroke-width="8"/><line x1="0" y1="500" x2="800" y2="500" stroke="#ffffff" stroke-width="6"/><rect x="0" y="0" width="100%" height="80" fill="#000000"/><text x="30" y="50" font-family="Segoe UI, Arial, sans-serif" font-size="28" fill="#ffffff" font-weight="bold" letter-spacing="-1">Uber</text><text x="100" y="50" font-family="Segoe UI, Arial, sans-serif" font-size="28" fill="#9ca3af" font-weight="normal">Engineering</text><text x="30" y="120" font-family="Segoe UI, sans-serif" font-size="24" fill="#000000" font-weight="bold">Surge Pricing Heatmap</text><text x="30" y="145" font-family="Segoe UI, sans-serif" font-size="14" fill="#555555">Real-time Demand Smoothing</text><polygon points="411.76914536239786,210.0 411.76914536239786,240.0 385.7883832488647,255.0 359.80762113533154,240.0 359.80762113533154,210.0 385.7883832488647,195.0" fill="#e9d5ff" stroke="#ffffff" stroke-width="1" opacity="0.5"/><polygon points="463.7306695894642,210.0 463.7306695894642,240.0 437.749907475931,255.0 411.76914536239786,240.0 411.76914536239786,210.0 437.749907475931,195.0" fill="#e9d5ff" stroke="#ffffff" stroke-width="1" opacity="0.5"/><polygon points="515.6921938165306,210.0 515.6921938165306,240.0 489.71143170299734,255.0 463.7306695894642,240.0 463.7306695894642,210.0 489.71143170299734,195.0" fill="#e9d5ff" stroke="#ffffff" stroke-width="1" opacity="0.5"/><polygon points="567.6537180435969,210.0 567.6537180435969,240.0 541.6729559300637,255.0 515.6921938165306,240.0 515.6921938165306,210.0 541.6729559300637,195.0" fill="#e9d5ff" stroke="#ffffff" stroke-width="1" opacity="0.5"/><polygon points="619.6152422706632,210.0 619.6152422706632,240.0 593.63448015713,255.0 567.6537180435969,240.0 567.6537180435969,210.0 593.63448015713,195.0" fill="#e9d5ff" stroke="#ffffff" stroke-width="1" opacity="0.5"/><polygon points="671.5767664977294,210.0 671.5767664977294,240.0 645.5960043841962,255.0 619.6152422706631,240.0 619.6152422706631,210.0 645.5960043841962,195.0" fill="#e9d5ff" stroke="#ffffff" stroke-width="1" opacity="0.5"/><polygon points="723.5382907247957,210.0 723.5382907247957,240.0 697.5575286112626,255.0 671.5767664977294,240.0 671.5767664977294,210.0 697.5575286112626,195.0" fill="#e9d5ff" stroke="#ffffff" stroke-width="1" opacity="0.5"/><polygon points="333.82685902179844,255.0 333.82685902179844,285.0 307.8460969082653,300.0 281.8653347947321,285.0 281.8653347947321,255.0 307.8460969082653,240.0" fill="#e9d5ff" stroke="#ffffff" stroke-width="1" opacity="0.5"/><polygon points="385.7883832488647,255.0 385.7883832488647,285.0 359.80762113533154,300.0 333.8268590217984,285.0 333.8268590217984,255.0 359.80762113533154,240.0" fill="#e9d5ff" stroke="#ffffff" stroke-width="1" opacity="0.5"/><polygon points="437.749907475931,255.0 437.749907475931,285.0 411.76914536239786,300.0 385.7883832488647,285.0 385.7883832488647,255.0 411.76914536239786,240.0" fill="#e9d5ff" stroke="#ffffff" stroke-width="1" opacity="0.5"/><polygon points="489.71143170299734,255.0 489.71143170299734,285.0 463.7306695894642,300.0 437.749907475931,285.0 437.749907475931,255.0 463.7306695894642,240.0" fill="#e9d5ff" stroke="#ffffff" stroke-width="1" opacity="0.5"/><polygon points="541.6729559300637,255.0 541.6729559300637,285.0 515.6921938165306,300.0 489.7114317029974,285.0 489.7114317029974,255.0 515.6921938165306,240.0" fill="#e9d5ff" stroke="#ffffff" stroke-width="1" opacity="0.5"/><polygon points="593.63448015713,255.0 593.63448015713,285.0 567.6537180435969,300.0 541.6729559300637,285.0 541.6729559300637,255.0 567.6537180435969,240.0" fill="#e9d5ff" stroke="#ffffff" stroke-width="1" opacity="0.5"/><polygon points="645.5960043841962,255.0 645.5960043841962,285.0 619.6152422706631,300.0 593.6344801571299,285.0 593.6344801571299,255.0 619.6152422706631,240.0" fill="#e9d5ff" stroke="#ffffff" stroke-width="1" opacity="0.5"/><polygon points="697.5575286112626,255.0 697.5575286112626,285.0 671.5767664977294,300.0 645.5960043841962,285.0 645.5960043841962,255.0 671.5767664977294,240.0" fill="#e9d5ff" stroke="#ffffff" stroke-width="1" opacity="0.5"/><polygon points="749.5190528383289,255.0 749.5190528383289,285.0 723.5382907247957,300.0 697.5575286112626,285.0 697.5575286112626,255.0 723.5382907247957,240.0" fill="#e9d5ff" stroke="#ffffff" stroke-width="1" opacity="0.5"/><polygon points="307.8460969082652,300.0 307.8460969082652,330.0 281.86533479473206,345.0 255.8845726811989,330.0 255.8845726811989,300.0 281.86533479473206,285.0" fill="#e9d5ff" stroke="#ffffff" stroke-width="1" opacity="0.5"/><polygon points="359.8076211353316,300.0 359.8076211353316,330.0 333.82685902179844,345.0 307.8460969082653,330.0 307.8460969082653,300.0 333.82685902179844,285.0" fill="#e9d5ff" stroke="#ffffff" stroke-width="1" opacity="0.5"/><polygon points="411.76914536239786,300.0 411.76914536239786,330.0 385.7883832488647,345.0 359.80762113533154,330.0 359.80762113533154,300.0 385.7883832488647,285.0" fill="#e9d5ff" stroke="#ffffff" stroke-width="1" opacity="0.5"/><polygon points="463.7306695894642,300.0 463.7306695894642,330.0 437.749907475931,345.0 411.76914536239786,330.0 411.76914536239786,300.0 437.749907475931,285.0" fill="#c084fc" stroke="#ffffff" stroke-width="1" opacity="0.7"/><polygon points="515.6921938165306,300.0 515.6921938165306,330.0 489.71143170299734,345.0 463.7306695894642,330.0 463.7306695894642,300.0 489.71143170299734,285.0" fill="#c084fc" stroke="#ffffff" stroke-width="1" opacity="0.7"/><polygon points="567.6537180435969,300.0 567.6537180435969,330.0 541.6729559300637,345.0 515.6921938165306,330.0 515.6921938165306,300.0 541.6729559300637,285.0" fill="#c084fc" stroke="#ffffff" stroke-width="1" opacity="0.7"/><polygon points="619.6152422706632,300.0 619.6152422706632,330.0 593.63448015713,345.0 567.6537180435969,330.0 567.6537180435969,300.0 593.63448015713,285.0" fill="#c084fc" stroke="#ffffff" stroke-width="1" opacity="0.7"/><polygon points="671.5767664977294,300.0 671.5767664977294,330.0 645.5960043841962,345.0 619.6152422706631,330.0 619.6152422706631,300.0 645.5960043841962,285.0" fill="#c084fc" stroke="#ffffff" stroke-width="1" opacity="0.7"/><polygon points="723.5382907247957,300.0 723.5382907247957,330.0 697.5575286112626,345.0 671.5767664977294,330.0 671.5767664977294,300.0 697.5575286112626,285.0" fill="#e9d5ff" stroke="#ffffff" stroke-width="1" opacity="0.5"/><polygon points="775.499814951862,300.0 775.499814951862,330.0 749.5190528383289,345.0 723.5382907247957,330.0 723.5382907247957,300.0 749.5190528383289,285.0" fill="#e9d5ff" stroke="#ffffff" stroke-width="1" opacity="0.5"/><polygon points="827.4613391789284,300.0 827.4613391789284,330.0 801.4805770653952,345.0 775.499814951862,330.0 775.499814951862,300.0 801.4805770653952,285.0" fill="#e9d5ff" stroke="#ffffff" stroke-width="1" opacity="0.5"/><polygon points="281.8653347947321,345.0 281.8653347947321,375.0 255.88457268119893,390.0 229.90381056766577,375.0 229.90381056766577,345.0 255.88457268119893,330.0" fill="#e9d5ff" stroke="#ffffff" stroke-width="1" opacity="0.5"/><polygon points="333.82685902179844,345.0 333.82685902179844,375.0 307.8460969082653,390.0 281.8653347947321,375.0 281.8653347947321,345.0 307.8460969082653,330.0" fill="#e9d5ff" stroke="#ffffff" stroke-width="1" opacity="0.5"/><polygon points="385.7883832488647,345.0 385.7883832488647,375.0 359.80762113533154,390.0 333.8268590217984,375.0 333.8268590217984,345.0 359.80762113533154,330.0" fill="#c084fc" stroke="#ffffff" stroke-width="1" opacity="0.7"/><polygon points="437.749907475931,345.0 437.749907475931,375.0 411.76914536239786,390.0 385.7883832488647,375.0 385.7883832488647,345.0 411.76914536239786,330.0" fill="#c084fc" stroke="#ffffff" stroke-width="1" opacity="0.7"/><polygon points="489.71143170299734,345.0 489.71143170299734,375.0 463.7306695894642,390.0 437.749907475931,375.0 437.749907475931,345.0 463.7306695894642,330.0" fill="#c084fc" stroke="#ffffff" stroke-width="1" opacity="0.7"/><polygon points="541.6729559300637,345.0 541.6729559300637,375.0 515.6921938165306,390.0 489.7114317029974,375.0 489.7114317029974,345.0 515.6921938165306,330.0" fill="#c084fc" stroke="#ffffff" stroke-width="1" opacity="0.7"/><polygon points="593.63448015713,345.0 593.63448015713,375.0 567.6537180435969,390.0 541.6729559300637,375.0 541.6729559300637,345.0 567.6537180435969,330.0" fill="#c084fc" stroke="#ffffff" stroke-width="1" opacity="0.7"/><polygon points="645.5960043841962,345.0 645.5960043841962,375.0 619.6152422706631,390.0 593.6344801571299,375.0 593.6344801571299,345.0 619.6152422706631,330.0" fill="#c084fc" stroke="#ffffff" stroke-width="1" opacity="0.7"/><polygon points="697.5575286112626,345.0 697.5575286112626,375.0 671.5767664977294,390.0 645.5960043841962,375.0 645.5960043841962,345.0 671.5767664977294,330.0" fill="#c084fc" stroke="#ffffff" stroke-width="1" opacity="0.7"/><polygon points="749.5190528383289,345.0 749.5190528383289,375.0 723.5382907247957,390.0 697.5575286112626,375.0 697.5575286112626,345.0 723.5382907247957,330.0" fill="#e9d5ff" stroke="#ffffff" stroke-width="1" opacity="0.5"/><polygon points="801.4805770653952,345.0 801.4805770653952,375.0 775.499814951862,390.0 749.5190528383289,375.0 749.5190528383289,345.0 775.499814951862,330.0" fill="#e9d5ff" stroke="#ffffff" stroke-width="1" opacity="0.5"/><polygon points="307.8460969082652,390.0 307.8460969082652,420.0 281.86533479473206,435.0 255.8845726811989,420.0 255.8845726811989,390.0 281.86533479473206,375.0" fill="#e9d5ff" stroke="#ffffff" stroke-width="1" opacity="0.5"/><polygon points="359.8076211353316,390.0 359.8076211353316,420.0 333.82685902179844,435.0 307.8460969082653,420.0 307.8460969082653,390.0 333.82685902179844,375.0" fill="#e9d5ff" stroke="#ffffff" stroke-width="1" opacity="0.5"/><polygon points="411.76914536239786,390.0 411.76914536239786,420.0 385.7883832488647,435.0 359.80762113533154,420.0 359.80762113533154,390.0 385.7883832488647,375.0" fill="#c084fc" stroke="#ffffff" stroke-width="1" opacity="0.7"/><polygon points="463.7306695894642,390.0 463.7306695894642,420.0 437.749907475931,435.0 411.76914536239786,420.0 411.76914536239786,390.0 437.749907475931,375.0" fill="#c084fc" stroke="#ffffff" stroke-width="1" opacity="0.7"/><polygon points="515.6921938165306,390.0 515.6921938165306,420.0 489.71143170299734,435.0 463.7306695894642,420.0 463.7306695894642,390.0 489.71143170299734,375.0" fill="#9333ea" stroke="#ffffff" stroke-width="1" opacity="0.9"/><text x="479.71143170299734" y="410.0" font-family="Segoe UI" font-size="12" fill="#ffffff" font-weight="bold">2.5x</text><polygon points="567.6537180435969,390.0 567.6537180435969,420.0 541.6729559300637,435.0 515.6921938165306,420.0 515.6921938165306,390.0 541.6729559300637,375.0" fill="#9333ea" stroke="#ffffff" stroke-width="1" opacity="0.9"/><polygon points="619.6152422706632,390.0 619.6152422706632,420.0 593.63448015713,435.0 567.6537180435969,420.0 567.6537180435969,390.0 593.63448015713,375.0" fill="#9333ea" stroke="#ffffff" stroke-width="1" opacity="0.9"/><text x="583.63448015713" y="410.0" font-family="Segoe UI" font-size="12" fill="#ffffff" font-weight="bold">2.5x</text><polygon points="671.5767664977294,390.0 671.5767664977294,420.0 645.5960043841962,435.0 619.6152422706631,420.0 619.6152422706631,390.0 645.5960043841962,375.0" fill="#c084fc" stroke="#ffffff" stroke-width="1" opacity="0.7"/><polygon points="723.5382907247957,390.0 723.5382907247957,420.0 697.5575286112626,435.0 671.5767664977294,420.0 671.5767664977294,390.0 697.5575286112626,375.0" fill="#c084fc" stroke="#ffffff" stroke-width="1" opacity="0.7"/><polygon points="775.499814951862,390.0 775.499814951862,420.0 749.5190528383289,435.0 723.5382907247957,420.0 723.5382907247957,390.0 749.5190528383289,375.0" fill="#e9d5ff" stroke="#ffffff" stroke-width="1" opacity="0.5"/><polygon points="827.4613391789284,390.0 827.4613391789284,420.0 801.4805770653952,435.0 775.499814951862,420.0 775.499814951862,390.0 801.4805770653952,375.0" fill="#e9d5ff" stroke="#ffffff" stroke-width="1" opacity="0.5"/><polygon points="281.8653347947321,435.0 281.8653347947321,465.0 255.88457268119893,480.0 229.90381056766577,465.0 229.90381056766577,435.0 255.88457268119893,420.0" fill="#e9d5ff" stroke="#ffffff" stroke-width="1" opacity="0.5"/><polygon points="333.82685902179844,435.0 333.82685902179844,465.0 307.8460969082653,480.0 281.8653347947321,465.0 281.8653347947321,435.0 307.8460969082653,420.0" fill="#e9d5ff" stroke="#ffffff" stroke-width="1" opacity="0.5"/><polygon points="385.7883832488647,435.0 385.7883832488647,465.0 359.80762113533154,480.0 333.8268590217984,465.0 333.8268590217984,435.0 359.80762113533154,420.0" fill="#c084fc" stroke="#ffffff" stroke-width="1" opacity="0.7"/><polygon points="437.749907475931,435.0 437.749907475931,465.0 411.76914536239786,480.0 385.7883832488647,465.0 385.7883832488647,435.0 411.76914536239786,420.0" fill="#c084fc" stroke="#ffffff" stroke-width="1" opacity="0.7"/><polygon points="489.71143170299734,435.0 489.71143170299734,465.0 463.7306695894642,480.0 437.749907475931,465.0 437.749907475931,435.0 463.7306695894642,420.0" fill="#9333ea" stroke="#ffffff" stroke-width="1" opacity="0.9"/><polygon points="541.6729559300637,435.0 541.6729559300637,465.0 515.6921938165306,480.0 489.7114317029974,465.0 489.7114317029974,435.0 515.6921938165306,420.0" fill="#9333ea" stroke="#ffffff" stroke-width="1" opacity="0.9"/><polygon points="593.63448015713,435.0 593.63448015713,465.0 567.6537180435969,480.0 541.6729559300637,465.0 541.6729559300637,435.0 567.6537180435969,420.0" fill="#9333ea" stroke="#ffffff" stroke-width="1" opacity="0.9"/><polygon points="645.5960043841962,435.0 645.5960043841962,465.0 619.6152422706631,480.0 593.6344801571299,465.0 593.6344801571299,435.0 619.6152422706631,420.0" fill="#c084fc" stroke="#ffffff" stroke-width="1" opacity="0.7"/><polygon points="697.5575286112626,435.0 697.5575286112626,465.0 671.5767664977294,480.0 645.5960043841962,465.0 645.5960043841962,435.0 671.5767664977294,420.0" fill="#c084fc" stroke="#ffffff" stroke-width="1" opacity="0.7"/><polygon points="749.5190528383289,435.0 749.5190528383289,465.0 723.5382907247957,480.0 697.5575286112626,465.0 697.5575286112626,435.0 723.5382907247957,420.0" fill="#e9d5ff" stroke="#ffffff" stroke-width="1" opacity="0.5"/><polygon points="801.4805770653952,435.0 801.4805770653952,465.0 775.499814951862,480.0 749.5190528383289,465.0 749.5190528383289,435.0 775.499814951862,420.0" fill="#e9d5ff" stroke="#ffffff" stroke-width="1" opacity="0.5"/><polygon points="307.8460969082652,480.0 307.8460969082652,510.0 281.86533479473206,525.0 255.8845726811989,510.0 255.8845726811989,480.0 281.86533479473206,465.0" fill="#e9d5ff" stroke="#ffffff" stroke-width="1" opacity="0.5"/><polygon points="359.8076211353316,480.0 359.8076211353316,510.0 333.82685902179844,525.0 307.8460969082653,510.0 307.8460969082653,480.0 333.82685902179844,465.0" fill="#e9d5ff" stroke="#ffffff" stroke-width="1" opacity="0.5"/><polygon points="411.76914536239786,480.0 411.76914536239786,510.0 385.7883832488647,525.0 359.80762113533154,510.0 359.80762113533154,480.0 385.7883832488647,465.0" fill="#c084fc" stroke="#ffffff" stroke-width="1" opacity="0.7"/><polygon points="463.7306695894642,480.0 463.7306695894642,510.0 437.749907475931,525.0 411.76914536239786,510.0 411.76914536239786,480.0 437.749907475931,465.0" fill="#c084fc" stroke="#ffffff" stroke-width="1" opacity="0.7"/><polygon points="515.6921938165306,480.0 515.6921938165306,510.0 489.71143170299734,525.0 463.7306695894642,510.0 463.7306695894642,480.0 489.71143170299734,465.0" fill="#9333ea" stroke="#ffffff" stroke-width="1" opacity="0.9"/><polygon points="567.6537180435969,480.0 567.6537180435969,510.0 541.6729559300637,525.0 515.6921938165306,510.0 515.6921938165306,480.0 541.6729559300637,465.0" fill="#9333ea" stroke="#ffffff" stroke-width="1" opacity="0.9"/><polygon points="619.6152422706632,480.0 619.6152422706632,510.0 593.63448015713,525.0 567.6537180435969,510.0 567.6537180435969,480.0 593.63448015713,465.0" fill="#9333ea" stroke="#ffffff" stroke-width="1" opacity="0.9"/><text x="583.63448015713" y="500.0" font-family="Segoe UI" font-size="12" fill="#ffffff" font-weight="bold">2.5x</text><polygon points="671.5767664977294,480.0 671.5767664977294,510.0 645.5960043841962,525.0 619.6152422706631,510.0 619.6152422706631,480.0 645.5960043841962,465.0" fill="#c084fc" stroke="#ffffff" stroke-width="1" opacity="0.7"/><polygon points="723.5382907247957,480.0 723.5382907247957,510.0 697.5575286112626,525.0 671.5767664977294,510.0 671.5767664977294,480.0 697.5575286112626,465.0" fill="#c084fc" stroke="#ffffff" stroke-width="1" opacity="0.7"/><polygon points="775.499814951862,480.0 775.499814951862,510.0 749.5190528383289,525.0 723.5382907247957,510.0 723.5382907247957,480.0 749.5190528383289,465.0" fill="#e9d5ff" stroke="#ffffff" stroke-width="1" opacity="0.5"/><polygon points="827.4613391789284,480.0 827.4613391789284,510.0 801.4805770653952,525.0 775.499814951862,510.0 775.499814951862,480.0 801.4805770653952,465.0" fill="#e9d5ff" stroke="#ffffff" stroke-width="1" opacity="0.5"/><polygon points="281.8653347947321,525.0 281.8653347947321,555.0 255.88457268119893,570.0 229.90381056766577,555.0 229.90381056766577,525.0 255.88457268119893,510.0" fill="#e9d5ff" stroke="#ffffff" stroke-width="1" opacity="0.5"/><polygon points="333.82685902179844,525.0 333.82685902179844,555.0 307.8460969082653,570.0 281.8653347947321,555.0 281.8653347947321,525.0 307.8460969082653,510.0" fill="#e9d5ff" stroke="#ffffff" stroke-width="1" opacity="0.5"/><polygon points="385.7883832488647,525.0 385.7883832488647,555.0 359.80762113533154,570.0 333.8268590217984,555.0 333.8268590217984,525.0 359.80762113533154,510.0" fill="#c084fc" stroke="#ffffff" stroke-width="1" opacity="0.7"/><polygon points="437.749907475931,525.0 437.749907475931,555.0 411.76914536239786,570.0 385.7883832488647,555.0 385.7883832488647,525.0 411.76914536239786,510.0" fill="#c084fc" stroke="#ffffff" stroke-width="1" opacity="0.7"/><polygon points="489.71143170299734,525.0 489.71143170299734,555.0 463.7306695894642,570.0 437.749907475931,555.0 437.749907475931,525.0 463.7306695894642,510.0" fill="#c084fc" stroke="#ffffff" stroke-width="1" opacity="0.7"/><polygon points="541.6729559300637,525.0 541.6729559300637,555.0 515.6921938165306,570.0 489.7114317029974,555.0 489.7114317029974,525.0 515.6921938165306,510.0" fill="#c084fc" stroke="#ffffff" stroke-width="1" opacity="0.7"/><polygon points="593.63448015713,525.0 593.63448015713,555.0 567.6537180435969,570.0 541.6729559300637,555.0 541.6729559300637,525.0 567.6537180435969,510.0" fill="#c084fc" stroke="#ffffff" stroke-width="1" opacity="0.7"/><polygon points="645.5960043841962,525.0 645.5960043841962,555.0 619.6152422706631,570.0 593.6344801571299,555.0 593.6344801571299,525.0 619.6152422706631,510.0" fill="#c084fc" stroke="#ffffff" stroke-width="1" opacity="0.7"/><polygon points="697.5575286112626,525.0 697.5575286112626,555.0 671.5767664977294,570.0 645.5960043841962,555.0 645.5960043841962,525.0 671.5767664977294,510.0" fill="#c084fc" stroke="#ffffff" stroke-width="1" opacity="0.7"/><polygon points="749.5190528383289,525.0 749.5190528383289,555.0 723.5382907247957,570.0 697.5575286112626,555.0 697.5575286112626,525.0 723.5382907247957,510.0" fill="#e9d5ff" stroke="#ffffff" stroke-width="1" opacity="0.5"/><polygon points="801.4805770653952,525.0 801.4805770653952,555.0 775.499814951862,570.0 749.5190528383289,555.0 749.5190528383289,525.0 775.499814951862,510.0" fill="#e9d5ff" stroke="#ffffff" stroke-width="1" opacity="0.5"/><polygon points="307.8460969082652,570.0 307.8460969082652,600.0 281.86533479473206,615.0 255.8845726811989,600.0 255.8845726811989,570.0 281.86533479473206,555.0" fill="#e9d5ff" stroke="#ffffff" stroke-width="1" opacity="0.5"/><polygon points="359.8076211353316,570.0 359.8076211353316,600.0 333.82685902179844,615.0 307.8460969082653,600.0 307.8460969082653,570.0 333.82685902179844,555.0" fill="#e9d5ff" stroke="#ffffff" stroke-width="1" opacity="0.5"/><polygon points="411.76914536239786,570.0 411.76914536239786,600.0 385.7883832488647,615.0 359.80762113533154,600.0 359.80762113533154,570.0 385.7883832488647,555.0" fill="#e9d5ff" stroke="#ffffff" stroke-width="1" opacity="0.5"/><polygon points="463.7306695894642,570.0 463.7306695894642,600.0 437.749907475931,615.0 411.76914536239786,600.0 411.76914536239786,570.0 437.749907475931,555.0" fill="#c084fc" stroke="#ffffff" stroke-width="1" opacity="0.7"/><polygon points="515.6921938165306,570.0 515.6921938165306,600.0 489.71143170299734,615.0 463.7306695894642,600.0 463.7306695894642,570.0 489.71143170299734,555.0" fill="#c084fc" stroke="#ffffff" stroke-width="1" opacity="0.7"/><polygon points="567.6537180435969,570.0 567.6537180435969,600.0 541.6729559300637,615.0 515.6921938165306,600.0 515.6921938165306,570.0 541.6729559300637,555.0" fill="#c084fc" stroke="#ffffff" stroke-width="1" opacity="0.7"/><polygon points="619.6152422706632,570.0 619.6152422706632,600.0 593.63448015713,615.0 567.6537180435969,600.0 567.6537180435969,570.0 593.63448015713,555.0" fill="#c084fc" stroke="#ffffff" stroke-width="1" opacity="0.7"/><polygon points="671.5767664977294,570.0 671.5767664977294,600.0 645.5960043841962,615.0 619.6152422706631,600.0 619.6152422706631,570.0 645.5960043841962,555.0" fill="#c084fc" stroke="#ffffff" stroke-width="1" opacity="0.7"/><polygon points="723.5382907247957,570.0 723.5382907247957,600.0 697.5575286112626,615.0 671.5767664977294,600.0 671.5767664977294,570.0 697.5575286112626,555.0" fill="#e9d5ff" stroke="#ffffff" stroke-width="1" opacity="0.5"/><polygon points="775.499814951862,570.0 775.499814951862,600.0 749.5190528383289,615.0 723.5382907247957,600.0 723.5382907247957,570.0 749.5190528383289,555.0" fill="#e9d5ff" stroke="#ffffff" stroke-width="1" opacity="0.5"/><polygon points="827.4613391789284,570.0 827.4613391789284,600.0 801.4805770653952,615.0 775.499814951862,600.0 775.499814951862,570.0 801.4805770653952,555.0" fill="#e9d5ff" stroke="#ffffff" stroke-width="1" opacity="0.5"/><polygon points="333.82685902179844,615.0 333.82685902179844,645.0 307.8460969082653,660.0 281.8653347947321,645.0 281.8653347947321,615.0 307.8460969082653,600.0" fill="#e9d5ff" stroke="#ffffff" stroke-width="1" opacity="0.5"/><polygon points="385.7883832488647,615.0 385.7883832488647,645.0 359.80762113533154,660.0 333.8268590217984,645.0 333.8268590217984,615.0 359.80762113533154,600.0" fill="#e9d5ff" stroke="#ffffff" stroke-width="1" opacity="0.5"/><polygon points="437.749907475931,615.0 437.749907475931,645.0 411.76914536239786,660.0 385.7883832488647,645.0 385.7883832488647,615.0 411.76914536239786,600.0" fill="#e9d5ff" stroke="#ffffff" stroke-width="1" opacity="0.5"/><polygon points="489.71143170299734,615.0 489.71143170299734,645.0 463.7306695894642,660.0 437.749907475931,645.0 437.749907475931,615.0 463.7306695894642,600.0" fill="#e9d5ff" stroke="#ffffff" stroke-width="1" opacity="0.5"/><polygon points="541.6729559300637,615.0 541.6729559300637,645.0 515.6921938165306,660.0 489.7114317029974,645.0 489.7114317029974,615.0 515.6921938165306,600.0" fill="#e9d5ff" stroke="#ffffff" stroke-width="1" opacity="0.5"/><polygon points="593.63448015713,615.0 593.63448015713,645.0 567.6537180435969,660.0 541.6729559300637,645.0 541.6729559300637,615.0 567.6537180435969,600.0" fill="#e9d5ff" stroke="#ffffff" stroke-width="1" opacity="0.5"/><polygon points="645.5960043841962,615.0 645.5960043841962,645.0 619.6152422706631,660.0 593.6344801571299,645.0 593.6344801571299,615.0 619.6152422706631,600.0" fill="#e9d5ff" stroke="#ffffff" stroke-width="1" opacity="0.5"/><polygon points="697.5575286112626,615.0 697.5575286112626,645.0 671.5767664977294,660.0 645.5960043841962,645.0 645.5960043841962,615.0 671.5767664977294,600.0" fill="#e9d5ff" stroke="#ffffff" stroke-width="1" opacity="0.5"/><polygon points="749.5190528383289,615.0 749.5190528383289,645.0 723.5382907247957,660.0 697.5575286112626,645.0 697.5575286112626,615.0 723.5382907247957,600.0" fill="#e9d5ff" stroke="#ffffff" stroke-width="1" opacity="0.5"/><polygon points="411.76914536239786,660.0 411.76914536239786,690.0 385.7883832488647,705.0 359.80762113533154,690.0 359.80762113533154,660.0 385.7883832488647,645.0" fill="#e9d5ff" stroke="#ffffff" stroke-width="1" opacity="0.5"/><polygon points="463.7306695894642,660.0 463.7306695894642,690.0 437.749907475931,705.0 411.76914536239786,690.0 411.76914536239786,660.0 437.749907475931,645.0" fill="#e9d5ff" stroke="#ffffff" stroke-width="1" opacity="0.5"/><polygon points="515.6921938165306,660.0 515.6921938165306,690.0 489.71143170299734,705.0 463.7306695894642,690.0 463.7306695894642,660.0 489.71143170299734,645.0" fill="#e9d5ff" stroke="#ffffff" stroke-width="1" opacity="0.5"/><polygon points="567.6537180435969,660.0 567.6537180435969,690.0 541.6729559300637,705.0 515.6921938165306,690.0 515.6921938165306,660.0 541.6729559300637,645.0" fill="#e9d5ff" stroke="#ffffff" stroke-width="1" opacity="0.5"/><polygon points="619.6152422706632,660.0 619.6152422706632,690.0 593.63448015713,705.0 567.6537180435969,690.0 567.6537180435969,660.0 593.63448015713,645.0" fill="#e9d5ff" stroke="#ffffff" stroke-width="1" opacity="0.5"/><polygon points="671.5767664977294,660.0 671.5767664977294,690.0 645.5960043841962,705.0 619.6152422706631,690.0 619.6152422706631,660.0 645.5960043841962,645.0" fill="#e9d5ff" stroke="#ffffff" stroke-width="1" opacity="0.5"/><polygon points="723.5382907247957,660.0 723.5382907247957,690.0 697.5575286112626,705.0 671.5767664977294,690.0 671.5767664977294,660.0 697.5575286112626,645.0" fill="#e9d5ff" stroke="#ffffff" stroke-width="1" opacity="0.5"/><rect x="600" y="500" width="180" height="80" rx="10" fill="#000000" opacity="0.9"/><text x="620" y="530" font-family="Segoe UI" font-size="14" fill="#9ca3af">Current Surge</text><text x="620" y="560" font-family="Segoe UI" font-size="24" fill="#ffffff" font-weight="bold">2.5x ⚡</text></svg>