<svg width="600" height="600" xmlns="http://www.w3.org/2000/svg" style="background-color:#ffffff;"><rect width="100%" height="100%" fill="#ffffff"/><rect x="0" y="0" width="100%" height="80" fill="#000000"/><text x="30" y="50" font-family="Segoe UI, Arial, sans-serif" font-size="28" fill="#ffffff" font-weight="bold" letter-spacing="-1">Uber</text><text x="100" y="50" font-family="Segoe UI, Arial, sans-serif" font-size="28" fill="#9ca3af" font-weight="normal">Engineering</text><text x="30" y="120" font-family="Segoe UI, sans-serif" font-size="24" fill="#000000" font-weight="bold">The Secret Projection</text><text x="30" y="145" font-family="Segoe UI, sans-serif" font-size="14" fill="#555555">Earth is an Icosahedron (20 Faces)</text><polygon points="438.5640646055102,270.0 300.0,510.0 161.43593539448983,270.0" fill="#eff6ff" stroke="#2563eb" stroke-width="2"/><polygon points="438.5640646055102,430.0 161.4359353944898,430.0 299.99999999999994,190.0" fill="#eff6ff" stroke="#2563eb" stroke-width="2"/><line x1="438.5640646055102" y1="270.0" x2="438.5640646055102" y2="430.0" stroke="#000000" stroke-width="3"/><line x1="438.5640646055102" y1="270.0" x2="300" y2="350" stroke="#000000" stroke-width="1" stroke-dasharray="5,5"/><line x1="438.5640646055102" y1="430.0" x2="300.0" y2="510.0" stroke="#000000" stroke-width="3"/><line x1="438.5640646055102" y1="430.0" x2="300" y2="350" stroke="#000000" stroke-width="1" stroke-dasharray="5,5"/><line x1="300.0" y1="510.0" x2="161.4359353944898" y2="430.0" stroke="#000000" stroke-width="3"/><line x1="300.0" y1="510.0" x2="300" y2="350" stroke="#000000" stroke-width="1" stroke-dasharray="5,5"/><line x1="161.4359353944898" y1="430.0" x2="161.43593539448983" y2="270.0" stroke="#000000" stroke-width="3"/><line x1="161.4359353944898" y1="430.0" x2="300" y2="350" stroke="#000000" stroke-width="1" stroke-dasharray="5,5"/><line x1="161.43593539448983" y1="270.0" x2="299.99999999999994" y2="190.0" stroke="#000000" stroke-width="3"/><line x1="161.43593539448983" y1="270.0" x2="300" y2="350" stroke="#000000" stroke-width="1" stroke-dasharray="5,5"/><line x1="299.99999999999994" y1="190.0" x2="438.5640646055102" y2="270.0" stroke="#000000" stroke-width="3"/><line x1="299.99999999999994" y1="190.0" x2="300" y2="350" stroke="#000000" stroke-width="1" stroke-dasharray="5,5"/><circle cx="438.5640646055102" cy="270.0" r="18" fill="#000000" stroke="#ffffff" stroke-width="2"/><text x="433.5640646055102" y="275.0" font-family="bold" font-size="14" fill="#ffffff">P</text><text x="50" y="550" font-family="Segoe UI, sans-serif" font-size="14" fill="#000000">"P" = The 12 Hidden Pentagons (Vertices)</text></svg>