<svg width="800" height="500" xmlns="http://www.w3.org/2000/svg" style="background-color:#ffffff;"><rect width="100%" height="100%" fill="#f3f4f6"/><rect x="0" y="0" width="100%" height="80" fill="#000000"/><text x="30" y="50" font-family="Segoe UI, Arial, sans-serif" font-size="28" fill="#ffffff" font-weight="bold" letter-spacing="-1">Uber</text><text x="100" y="50" font-family="Segoe UI, Arial, sans-serif" font-size="28" fill="#9ca3af" font-weight="normal">Engineering</text><text x="30" y="120" font-family="Segoe UI, sans-serif" font-size="24" fill="#000000" font-weight="bold">The Geometry Battle</text><text x="30" y="145" font-family="Segoe UI, sans-serif" font-size="14" fill="#555555">Why Squares Fail & Hexagons Win</text><rect x="100" y="180" width="250" height="250" rx="10" fill="#ffffff" stroke="#e5e7eb" stroke-width="2"/><text x="120" y="220" font-family="Segoe UI, sans-serif" font-size="18" fill="#dc2626" font-weight="bold">Square (S2)</text><rect x="150.0" y="245.0" width="50" height="50" fill="#ffffff" stroke="#dc2626" stroke-width="2"/><rect x="150.0" y="295.0" width="50" height="50" fill="#ffffff" stroke="#dc2626" stroke-width="2"/><rect x="150.0" y="345.0" width="50" height="50" fill="#ffffff" stroke="#dc2626" stroke-width="2"/><rect x="200.0" y="245.0" width="50" height="50" fill="#ffffff" stroke="#dc2626" stroke-width="2"/><rect x="200.0" y="295.0" width="50" height="50" fill="#fee2e2" stroke="#dc2626" stroke-width="2"/><rect x="200.0" y="345.0" width="50" height="50" fill="#ffffff" stroke="#dc2626" stroke-width="2"/><rect x="250.0" y="245.0" width="50" height="50" fill="#ffffff" stroke="#dc2626" stroke-width="2"/><rect x="250.0" y="295.0" width="50" height="50" fill="#ffffff" stroke="#dc2626" stroke-width="2"/><rect x="250.0" y="345.0" width="50" height="50" fill="#ffffff" stroke="#dc2626" stroke-width="2"/><line x1="225" y1="320" x2="275" y2="320" stroke="#333" stroke-width="2" marker-end="url(#arrow)"/><text x="235" y="310" font-family="monospace" font-size="10">1.0</text><line x1="225" y1="320" x2="275" y2="270" stroke="#dc2626" stroke-width="3" marker-end="url(#arrow_red)"/><text x="255" y="290" font-family="monospace" font-size="10" fill="#dc2626">1.41 ❌</text><rect x="450" y="180" width="250" height="250" rx="10" fill="#ffffff" stroke="#e5e7eb" stroke-width="2"/><text x="470" y="220" font-family="Segoe UI, sans-serif" font-size="18" fill="#16a34a" font-weight="bold">Hexagon (H3)</text><polygon points="605.3108891324554,302.5 605.3108891324554,337.5 575.0,355.0 544.6891108675446,337.5 544.6891108675446,302.5 575.0,285.0" fill="#dcfce7" stroke="#16a34a" stroke-width="2"/><polygon points="665.9326673973661,302.5 665.9326673973661,337.5 635.6217782649107,355.0 605.3108891324554,337.5 605.3108891324554,302.5 635.6217782649107,285.0" fill="#ffffff" stroke="#16a34a" stroke-width="2"/><line x1="575" y1="320" x2="635.6217782649107" y2="320.0" stroke="#16a34a" stroke-width="3" marker-end="url(#arrow_green)"/><text x="595" y="310" font-family="monospace" font-size="10" fill="#16a34a">1.0 ✅</text><polygon points="635.6217782649107,355.0 635.6217782649107,390.0 605.3108891324554,407.5 575.0,390.0 575.0,355.0 605.3108891324554,337.5" fill="#ffffff" stroke="#16a34a" stroke-width="2"/><polygon points="575.0,355.0 575.0,390.0 544.6891108675446,407.5 514.3782217350893,390.0 514.3782217350893,355.0 544.6891108675446,337.5" fill="#ffffff" stroke="#16a34a" stroke-width="2"/><polygon points="544.6891108675446,302.5 544.6891108675446,337.5 514.3782217350893,355.0 484.0673326026339,337.5 484.0673326026339,302.5 514.3782217350893,285.0" fill="#ffffff" stroke="#16a34a" stroke-width="2"/><polygon points="575.0,250.0 575.0,285.0 544.6891108675446,302.5 514.3782217350893,285.0 514.3782217350893,250.0 544.6891108675446,232.5" fill="#ffffff" stroke="#16a34a" stroke-width="2"/><polygon points="635.6217782649107,250.0 635.6217782649107,285.0 605.3108891324554,302.5 575.0,285.0 575.0,250.0 605.3108891324554,232.5" fill="#ffffff" stroke="#16a34a" stroke-width="2"/><defs><marker id="arrow" markerWidth="10" markerHeight="10" refX="9" refY="3" orient="auto"><path d="M0,0 L0,6 L9,3 z" fill="#333" /></marker><marker id="arrow_red" markerWidth="10" markerHeight="10" refX="9" refY="3" orient="auto"><path d="M0,0 L0,6 L9,3 z" fill="#dc2626" /></marker><marker id="arrow_green" markerWidth="10" markerHeight="10" refX="9" refY="3" orient="auto"><path d="M0,0 L0,6 L9,3 z" fill="#16a34a" /></marker></defs></svg>