<svg width="800" height="400" xmlns="http://www.w3.org/2000/svg" style="background-color:#ffffff;"><rect width="100%" height="100%" fill="#ffffff"/><text x="400" y="40" font-family="Segoe UI, Verdana, sans-serif" font-size="24" fill="#1f2937" font-weight="bold" text-anchor="middle">DIP: Dependency Inversion (The Power Plug)</text><rect x="50" y="150" width="200" height="150" fill="#e0e7ff" stroke="#4338ca" stroke-width="2" rx="8" /><text x="150" y="200" font-family="Segoe UI, Verdana, sans-serif" font-size="16" fill="#312e81" font-weight="bold" text-anchor="middle">High Logic</text><text x="150" y="230" font-family="Segoe UI, Verdana, sans-serif" font-size="14" fill="#6366f1" font-weight="normal" text-anchor="middle">(Your Laptop)</text><line x1="250" y1="225" x2="350" y2="225" stroke="#1f2937" stroke-width="8"  /><circle cx="360" cy="225" r="40" fill="#f3f4f6" stroke="#4b5563" stroke-width="2" /><text x="360" y="230" font-family="Segoe UI, Verdana, sans-serif" font-size="12" fill="#1f2937" font-weight="bold" text-anchor="middle">Interface</text><circle cx="350" cy="215" r="4" fill="#000" stroke="#000" stroke-width="2" /><circle cx="370" cy="215" r="4" fill="#000" stroke="#000" stroke-width="2" /><circle cx="360" cy="240" r="4" fill="#000" stroke="#000" stroke-width="2" /><line x1="400" y1="225" x2="500" y2="150" stroke="#9ca3af" stroke-width="2" stroke-dasharray="5,5" /><rect x="500" y="120" width="150" height="60" fill="#dcfce7" stroke="#16a34a" stroke-width="2" rx="8" /><text x="575" y="155" font-family="Segoe UI, Verdana, sans-serif" font-size="14" fill="#14532d" font-weight="bold" text-anchor="middle">MySQL DB</text><line x1="400" y1="225" x2="500" y2="225" stroke="#9ca3af" stroke-width="2" stroke-dasharray="5,5" /><rect x="500" y="195" width="150" height="60" fill="#fef3c7" stroke="#d97706" stroke-width="2" rx="8" /><text x="575" y="230" font-family="Segoe UI, Verdana, sans-serif" font-size="14" fill="#78350f" font-weight="bold" text-anchor="middle">MongoDB</text><line x1="400" y1="225" x2="500" y2="300" stroke="#9ca3af" stroke-width="2" stroke-dasharray="5,5" /><rect x="500" y="270" width="150" height="60" fill="#fee2e2" stroke="#dc2626" stroke-width="2" rx="8" /><text x="575" y="305" font-family="Segoe UI, Verdana, sans-serif" font-size="14" fill="#7f1d1d" font-weight="bold" text-anchor="middle">Test Mock DB</text><text x="400" y="360" font-family="Segoe UI, Verdana, sans-serif" font-size="16" fill="#374151" font-weight="italic" text-anchor="middle">The Laptop doesn't care who powers it.</text></svg>