<svg width="800" height="600" xmlns="http://www.w3.org/2000/svg" style="background-color:#ffffff;"><rect width="100%" height="100%" fill="#ffffff"/><text x="50" y="50" font-family="Segoe UI, sans-serif" font-size="28" fill="#333333" font-weight="bold">Discord's Secret: Time Buckets ⏳</text><text x="50" y="80" font-family="Segoe UI, sans-serif" font-size="14" fill="#666666">How to handle 1 Million users in one channel without crashing.</text><text x="100" y="140" font-family="Segoe UI, sans-serif" font-size="18" fill="#dc2626" font-weight="bold">The Problem: Hot Partition</text><rect x="100" y="160" width="120" height="140" rx="4" fill="#fee2e2" stroke="#dc2626" stroke-width="3"/><text x="125" y="190" font-family="Segoe UI, sans-serif" font-size="14" fill="#991b1b" font-weight="bold">Node A</text><rect x="110" y="210" width="100" height="4" fill="#ef4444"/><rect x="110" y="218" width="100" height="4" fill="#ef4444"/><rect x="110" y="226" width="100" height="4" fill="#ef4444"/><rect x="110" y="234" width="100" height="4" fill="#ef4444"/><rect x="110" y="242" width="100" height="4" fill="#ef4444"/><rect x="110" y="250" width="100" height="4" fill="#ef4444"/><rect x="110" y="258" width="100" height="4" fill="#ef4444"/><rect x="110" y="266" width="100" height="4" fill="#ef4444"/><rect x="110" y="274" width="100" height="4" fill="#ef4444"/><rect x="110" y="282" width="100" height="4" fill="#ef4444"/><text x="240" y="230" font-family="Segoe UI, sans-serif" font-size="14" fill="#dc2626">"General Chat" (All Messages)</text><text x="240" y="250" font-family="Segoe UI, sans-serif" font-size="12" fill="#666666">One server takes 100% load.</text><text x="100" y="360" font-family="Segoe UI, sans-serif" font-size="18" fill="#16a34a" font-weight="bold">The Solution: Time Buckets</text><rect x="100" y="400" width="140" height="120" rx="4" fill="#dbeafe" stroke="#2563eb" stroke-width="3"/><text x="140" y="430" font-family="Segoe UI, sans-serif" font-size="14" fill="#2563eb" font-weight="bold">Node A</text><rect x="110" y="450" width="120" height="30" rx="2" fill="#ffffff" stroke="#2563eb" stroke-width="1"/><text x="120" y="470" font-family="monospace" font-size="12" fill="#333333">12:00 - 12:10</text><rect x="120" y="490" width="100" height="4" fill="#2563eb"/><rect x="120" y="498" width="100" height="4" fill="#2563eb"/><rect x="120" y="506" width="100" height="4" fill="#2563eb"/><rect x="300" y="400" width="140" height="120" rx="4" fill="#dcfce7" stroke="#16a34a" stroke-width="3"/><text x="340" y="430" font-family="Segoe UI, sans-serif" font-size="14" fill="#16a34a" font-weight="bold">Node B</text><rect x="310" y="450" width="120" height="30" rx="2" fill="#ffffff" stroke="#16a34a" stroke-width="1"/><text x="320" y="470" font-family="monospace" font-size="12" fill="#333333">12:10 - 12:20</text><rect x="320" y="490" width="100" height="4" fill="#16a34a"/><rect x="320" y="498" width="100" height="4" fill="#16a34a"/><rect x="320" y="506" width="100" height="4" fill="#16a34a"/><rect x="500" y="400" width="140" height="120" rx="4" fill="#f3e8ff" stroke="#9333ea" stroke-width="3"/><text x="540" y="430" font-family="Segoe UI, sans-serif" font-size="14" fill="#9333ea" font-weight="bold">Node C</text><rect x="510" y="450" width="120" height="30" rx="2" fill="#ffffff" stroke="#9333ea" stroke-width="1"/><text x="520" y="470" font-family="monospace" font-size="12" fill="#333333">12:20 - 12:30</text><rect x="520" y="490" width="100" height="4" fill="#9333ea"/><rect x="520" y="498" width="100" height="4" fill="#9333ea"/><rect x="520" y="506" width="100" height="4" fill="#9333ea"/><text x="100" y="560" font-family="Segoe UI, sans-serif" font-size="14" fill="#666666">Load is spread across 3 servers based on TIME. No single server dies!</text></svg>