<svg width="800" height="500" xmlns="http://www.w3.org/2000/svg" style="background-color:#ffffff;"><rect width="100%" height="100%" fill="#ffffff"/><text x="50" y="50" font-family="Segoe UI, sans-serif" font-size="28" fill="#333333" font-weight="bold">The Cleanup: Compaction 🧹</text><text x="50" y="80" font-family="Segoe UI, sans-serif" font-size="14" fill="#666666">Merging small files into big ones & removing deleted data.</text><text x="100" y="140" font-family="Segoe UI, sans-serif" font-size="16" fill="#333333" font-weight="bold">Level 0 (Fragmented)</text><rect x="50" y="160" width="90" height="120" rx="2" fill="#f8fafc" stroke="#64748b" stroke-width="2"/><rect x="60" y="200" width="70" height="30" rx="2" fill="#dbeafe" stroke="none"/><text x="65" y="220" font-family="monospace" font-size="12" fill="#333333">A:1</text><text x="75" y="270" font-family="Segoe UI, sans-serif" font-size="10" fill="#94a3b8">File 1</text><rect x="160" y="160" width="90" height="120" rx="2" fill="#f8fafc" stroke="#64748b" stroke-width="2"/><rect x="170" y="200" width="70" height="30" rx="2" fill="#dbeafe" stroke="none"/><text x="175" y="220" font-family="monospace" font-size="12" fill="#333333">B:2</text><text x="185" y="270" font-family="Segoe UI, sans-serif" font-size="10" fill="#94a3b8">File 2</text><rect x="270" y="160" width="90" height="120" rx="2" fill="#f8fafc" stroke="#64748b" stroke-width="2"/><rect x="280" y="200" width="70" height="30" rx="2" fill="#dcfce7" stroke="none"/><text x="285" y="220" font-family="monospace" font-size="12" fill="#333333">A:9 (Upd)</text><text x="295" y="270" font-family="Segoe UI, sans-serif" font-size="10" fill="#94a3b8">File 3</text><rect x="380" y="160" width="90" height="120" rx="2" fill="#f8fafc" stroke="#64748b" stroke-width="2"/><rect x="390" y="200" width="70" height="30" rx="2" fill="#fee2e2" stroke="none"/><text x="395" y="220" font-family="monospace" font-size="12" fill="#333333">Del:B</text><text x="405" y="270" font-family="Segoe UI, sans-serif" font-size="10" fill="#94a3b8">File 4</text><path d="M 400 300 L 400 360" stroke="#333333" stroke-width="3" marker-end="url(#arrow)"/><defs><marker id="arrow" markerWidth="10" markerHeight="10" refX="0" refY="3" orient="auto" markerUnits="strokeWidth"><path d="M0,0 L0,6 L9,3 z" fill="#333333" /></marker></defs><text x="410" y="340" font-family="Segoe UI, sans-serif" font-size="14" fill="#666666" font-style="italic">Merge & Sort</text><text x="100" y="400" font-family="Segoe UI, sans-serif" font-size="16" fill="#333333" font-weight="bold">Level 1 (Compacted)</text><rect x="250" y="380" width="300" height="100" rx="4" fill="#f0fdf4" stroke="#16a34a" stroke-width="3"/><rect x="270" y="410" width="120" height="40" rx="2" fill="#bbf7d0" stroke="none"/><text x="285" y="435" font-family="monospace" font-size="14" fill="#166534">A:9 (Latest)</text><rect x="410" y="410" width="120" height="40" rx="2" fill="#bbf7d0" stroke="none"/><text x="425" y="435" font-family="monospace" font-size="14" fill="#166534">C:5 (Existing)</text><text x="560" y="430" font-family="Segoe UI, sans-serif" font-size="12" fill="#dc2626">"B" was removed!</text><text x="560" y="450" font-family="Segoe UI, sans-serif" font-size="12" fill="#166534">"A" updated!</text></svg>