<svg width="800" height="500" xmlns="http://www.w3.org/2000/svg" style="background-color:#ffffff;"><rect width="100%" height="100%" fill="#ffffff"/><text x="50" y="50" font-family="Segoe UI, sans-serif" font-size="28" fill="#333333" font-weight="bold">The Solution: Sequential I/O (LSM Trees)</text><rect x="50" y="150" width="200" height="250" rx="4" fill="#eff6ff" stroke="#2563eb" stroke-width="3"/><text x="100" y="190" font-family="Segoe UI, sans-serif" font-size="20" fill="#1e40af" font-weight="bold">MemTable</text><text x="120" y="215" font-family="Segoe UI, sans-serif" font-size="14" fill="#64748b">(RAM)</text><rect x="70" y="250" width="160" height="25" rx="2" fill="#dbeafe" stroke="#93c5fd" stroke-width="1"/><text x="80" y="267" font-family="monospace" font-size="12" fill="#1e3a8a">KEY_0: VAL_0</text><rect x="70" y="285" width="160" height="25" rx="2" fill="#dbeafe" stroke="#93c5fd" stroke-width="1"/><text x="80" y="302" font-family="monospace" font-size="12" fill="#1e3a8a">KEY_1: VAL_1</text><rect x="70" y="320" width="160" height="25" rx="2" fill="#dbeafe" stroke="#93c5fd" stroke-width="1"/><text x="80" y="337" font-family="monospace" font-size="12" fill="#1e3a8a">KEY_2: VAL_2</text><rect x="70" y="355" width="160" height="25" rx="2" fill="#dbeafe" stroke="#93c5fd" stroke-width="1"/><text x="80" y="372" font-family="monospace" font-size="12" fill="#1e3a8a">KEY_3: VAL_3</text><rect x="70" y="390" width="160" height="25" rx="2" fill="#dbeafe" stroke="#93c5fd" stroke-width="1"/><text x="80" y="407" font-family="monospace" font-size="12" fill="#1e3a8a">KEY_4: VAL_4</text><path d="M 270 275 L 350 275" stroke="#333333" stroke-width="3" marker-end="url(#arrow)"/><defs><marker id="arrow" markerWidth="10" markerHeight="10" refX="0" refY="3" orient="auto" markerUnits="strokeWidth"><path d="M0,0 L0,6 L9,3 z" fill="#333333" /></marker></defs><text x="280" y="265" font-family="Segoe UI, sans-serif" font-size="14" fill="#666666" font-weight="bold">FLUSH</text><rect x="370" y="150" width="120" height="250" rx="2" fill="#f0fdf4" stroke="#16a34a" stroke-width="3"/><text x="390" y="190" font-family="Segoe UI, sans-serif" font-size="16" fill="#15803d" font-weight="bold">SSTable 1</text><line x1="385" y1="230" x2="475" y2="230" stroke="#86efac" stroke-width="4"/><line x1="385" y1="260" x2="475" y2="260" stroke="#86efac" stroke-width="4"/><line x1="385" y1="290" x2="475" y2="290" stroke="#86efac" stroke-width="4"/><line x1="385" y1="320" x2="475" y2="320" stroke="#86efac" stroke-width="4"/><line x1="385" y1="350" x2="475" y2="350" stroke="#86efac" stroke-width="4"/><line x1="385" y1="380" x2="475" y2="380" stroke="#86efac" stroke-width="4"/><rect x="510" y="150" width="120" height="250" rx="2" fill="#f0fdf4" stroke="#16a34a" stroke-width="3"/><text x="530" y="190" font-family="Segoe UI, sans-serif" font-size="16" fill="#15803d" font-weight="bold">SSTable 2</text><line x1="525" y1="230" x2="615" y2="230" stroke="#86efac" stroke-width="4"/><line x1="525" y1="260" x2="615" y2="260" stroke="#86efac" stroke-width="4"/><line x1="525" y1="290" x2="615" y2="290" stroke="#86efac" stroke-width="4"/><line x1="525" y1="320" x2="615" y2="320" stroke="#86efac" stroke-width="4"/><line x1="525" y1="350" x2="615" y2="350" stroke="#86efac" stroke-width="4"/><line x1="525" y1="380" x2="615" y2="380" stroke="#86efac" stroke-width="4"/><rect x="650" y="150" width="120" height="250" rx="2" fill="#f0fdf4" stroke="#16a34a" stroke-width="3"/><text x="670" y="190" font-family="Segoe UI, sans-serif" font-size="16" fill="#15803d" font-weight="bold">SSTable 3</text><line x1="665" y1="230" x2="755" y2="230" stroke="#86efac" stroke-width="4"/><line x1="665" y1="260" x2="755" y2="260" stroke="#86efac" stroke-width="4"/><line x1="665" y1="290" x2="755" y2="290" stroke="#86efac" stroke-width="4"/><line x1="665" y1="320" x2="755" y2="320" stroke="#86efac" stroke-width="4"/><line x1="665" y1="350" x2="755" y2="350" stroke="#86efac" stroke-width="4"/><line x1="665" y1="380" x2="755" y2="380" stroke="#86efac" stroke-width="4"/><text x="50" y="480" font-family="Segoe UI, sans-serif" font-size="16" fill="#666666">Data is appended sequentially. No jumping. Fast!</text></svg>