<svg width="800" height="500" xmlns="http://www.w3.org/2000/svg" style="background-color:#ffffff;"><rect width="100%" height="100%" fill="#ffffff"/><text x="50" y="50" font-family="Segoe UI, sans-serif" font-size="28" fill="#333333" font-weight="bold">The Problem: Random I/O (B-Trees)</text><circle cx="400" cy="280" r="180" fill="#f8f9fa" stroke="#333333" stroke-width="3"/><circle cx="400" cy="280" r="20" fill="#333333" stroke="none"/><circle cx="400" cy="280" r="60" fill="none" stroke="#e9ecef" stroke-width="2" stroke-dasharray="5,5"/><circle cx="400" cy="280" r="100" fill="none" stroke="#e9ecef" stroke-width="2" stroke-dasharray="5,5"/><circle cx="400" cy="280" r="140" fill="none" stroke="#e9ecef" stroke-width="2" stroke-dasharray="5,5"/><rect x="489.8366473565644" y="368.1460332596331" width="20" height="20" fill="#ffcccc" stroke="#dc2626" stroke-width="2"/><text x="494.8366473565644" y="383.1460332596331" font-family="monospace" font-size="10" fill="#dc2626">1</text><rect x="338.2902048889588" y="239.5681566517219" width="20" height="20" fill="#ffcccc" stroke="#dc2626" stroke-width="2"/><text x="343.2902048889588" y="254.5681566517219" font-family="monospace" font-size="10" fill="#dc2626">2</text><rect x="422.2314036575305" y="320.6076735116853" width="20" height="20" fill="#ffcccc" stroke="#dc2626" stroke-width="2"/><text x="427.2314036575305" y="335.6076735116853" font-family="monospace" font-size="10" fill="#dc2626">3</text><rect x="489.8208354011997" y="264.0166213719502" width="20" height="20" fill="#ffcccc" stroke="#dc2626" stroke-width="2"/><text x="494.8208354011997" y="279.0166213719502" font-family="monospace" font-size="10" fill="#dc2626">4</text><rect x="402.0440562831551" y="328.7787436770147" width="20" height="20" fill="#ffcccc" stroke="#dc2626" stroke-width="2"/><text x="407.0440562831551" y="343.7787436770147" font-family="monospace" font-size="10" fill="#dc2626">5</text><rect x="260.1150893366247" y="217.75145952309265" width="20" height="20" fill="#ffcccc" stroke="#dc2626" stroke-width="2"/><text x="265.1150893366247" y="232.75145952309265" font-family="monospace" font-size="10" fill="#dc2626">6</text><rect x="524.3662025895985" y="230.6843084551349" width="20" height="20" fill="#ffcccc" stroke="#dc2626" stroke-width="2"/><text x="529.3662025895985" y="245.6843084551349" font-family="monospace" font-size="10" fill="#dc2626">7</text><rect x="290.00001320010205" y="270.05138112720505" width="20" height="20" fill="#ffcccc" stroke="#dc2626" stroke-width="2"/><text x="295.00001320010205" y="285.05138112720505" font-family="monospace" font-size="10" fill="#dc2626">8</text><path d="M 499.8366473565644 378.1460332596331 L 348.2902048889588 249.5681566517219 L 432.2314036575305 330.6076735116853 L 499.8208354011997 274.0166213719502 L 412.0440562831551 338.7787436770147 L 270.1150893366247 227.75145952309265 L 534.3662025895985 240.6843084551349 L 300.00001320010205 280.05138112720505" fill="none" stroke="#dc2626" stroke-width="3" stroke-dasharray="8,4"/><text x="50" y="480" font-family="Segoe UI, sans-serif" font-size="16" fill="#666666">Disk Head jumps randomly to find blocks 1 -> 8. Slow!</text></svg>