<svg width="800" height="450" xmlns="http://www.w3.org/2000/svg" style="background-color:#0f172a;"><rect width="100%" height="100%" fill="#0f172a"/><text x="40" y="50" font-family="Arial" font-size="24" fill="#e2e8f0" font-weight="bold">The Problem: Random I/O (B-Trees)</text><text x="40" y="80" font-family="Arial" font-size="14" fill="#94a3b8">Disk head jumps frantically to find data. High Latency.</text><circle cx="453" cy="310" r="6" fill="#334155" stroke="#475569" stroke-width="1"/><circle cx="309" cy="326" r="6" fill="#334155" stroke="#475569" stroke-width="1"/><circle cx="58" cy="202" r="6" fill="#334155" stroke="#475569" stroke-width="1"/><circle cx="395" cy="308" r="6" fill="#334155" stroke="#475569" stroke-width="1"/><circle cx="267" cy="210" r="6" fill="#334155" stroke="#475569" stroke-width="1"/><circle cx="455" cy="327" r="6" fill="#334155" stroke="#475569" stroke-width="1"/><circle cx="425" cy="294" r="6" fill="#334155" stroke="#475569" stroke-width="1"/><circle cx="321" cy="263" r="6" fill="#334155" stroke="#475569" stroke-width="1"/><circle cx="691" cy="151" r="6" fill="#334155" stroke="#475569" stroke-width="1"/><circle cx="521" cy="397" r="6" fill="#334155" stroke="#475569" stroke-width="1"/><circle cx="132" cy="347" r="6" fill="#334155" stroke="#475569" stroke-width="1"/><circle cx="55" cy="387" r="6" fill="#334155" stroke="#475569" stroke-width="1"/><circle cx="269" cy="130" r="6" fill="#334155" stroke="#475569" stroke-width="1"/><circle cx="170" cy="271" r="6" fill="#334155" stroke="#475569" stroke-width="1"/><circle cx="678" cy="164" r="6" fill="#334155" stroke="#475569" stroke-width="1"/><circle cx="744" cy="399" r="6" fill="#334155" stroke="#475569" stroke-width="1"/><circle cx="320" cy="393" r="6" fill="#334155" stroke="#475569" stroke-width="1"/><circle cx="742" cy="330" r="6" fill="#334155" stroke="#475569" stroke-width="1"/><circle cx="500" cy="124" r="6" fill="#334155" stroke="#475569" stroke-width="1"/><circle cx="365" cy="200" r="6" fill="#334155" stroke="#475569" stroke-width="1"/><circle cx="704" cy="213" r="6" fill="#334155" stroke="#475569" stroke-width="1"/><circle cx="571" cy="324" r="6" fill="#334155" stroke="#475569" stroke-width="1"/><circle cx="644" cy="301" r="6" fill="#334155" stroke="#475569" stroke-width="1"/><circle cx="98" cy="147" r="6" fill="#334155" stroke="#475569" stroke-width="1"/><circle cx="336" cy="176" r="6" fill="#334155" stroke="#475569" stroke-width="1"/><circle cx="190" cy="369" r="6" fill="#334155" stroke="#475569" stroke-width="1"/><circle cx="428" cy="128" r="6" fill="#334155" stroke="#475569" stroke-width="1"/><circle cx="237" cy="341" r="6" fill="#334155" stroke="#475569" stroke-width="1"/><circle cx="309" cy="203" r="6" fill="#334155" stroke="#475569" stroke-width="1"/><circle cx="661" cy="187" r="6" fill="#334155" stroke="#475569" stroke-width="1"/><circle cx="220" cy="278" r="6" fill="#334155" stroke="#475569" stroke-width="1"/><circle cx="724" cy="339" r="6" fill="#334155" stroke="#475569" stroke-width="1"/><circle cx="517" cy="390" r="6" fill="#334155" stroke="#475569" stroke-width="1"/><circle cx="522" cy="342" r="6" fill="#334155" stroke="#475569" stroke-width="1"/><circle cx="185" cy="226" r="6" fill="#334155" stroke="#475569" stroke-width="1"/><circle cx="605" cy="359" r="6" fill="#334155" stroke="#475569" stroke-width="1"/><circle cx="261" cy="261" r="6" fill="#334155" stroke="#475569" stroke-width="1"/><circle cx="280" cy="345" r="6" fill="#334155" stroke="#475569" stroke-width="1"/><circle cx="190" cy="167" r="6" fill="#334155" stroke="#475569" stroke-width="1"/><circle cx="738" cy="189" r="6" fill="#334155" stroke="#475569" stroke-width="1"/><circle cx="297" cy="202" r="6" fill="#334155" stroke="#475569" stroke-width="1"/><circle cx="272" cy="351" r="6" fill="#334155" stroke="#475569" stroke-width="1"/><circle cx="669" cy="352" r="6" fill="#334155" stroke="#475569" stroke-width="1"/><circle cx="553" cy="345" r="6" fill="#334155" stroke="#475569" stroke-width="1"/><circle cx="365" cy="375" r="6" fill="#334155" stroke="#475569" stroke-width="1"/><circle cx="378" cy="144" r="6" fill="#334155" stroke="#475569" stroke-width="1"/><circle cx="74" cy="324" r="6" fill="#334155" stroke="#475569" stroke-width="1"/><circle cx="527" cy="375" r="6" fill="#334155" stroke="#475569" stroke-width="1"/><circle cx="473" cy="353" r="6" fill="#334155" stroke="#475569" stroke-width="1"/><circle cx="361" cy="227" r="6" fill="#334155" stroke="#475569" stroke-width="1"/><path d="M 453 310 L 309 326 L 58 202 L 395 308 L 267 210 L 455 327 L 425 294 L 321 263 L 691 151 L 521 397 L 132 347 L 55 387 L 269 130 L 170 271 L 678 164 L 744 399 L 320 393 L 742 330 L 500 124 L 365 200 L 704 213 L 571 324 L 644 301 L 98 147 L 336 176 L 190 369 L 428 128 L 237 341 L 309 203 L 661 187 L 220 278 L 724 339 L 517 390 L 522 342 L 185 226 L 605 359 L 261 261 L 280 345 L 190 167 L 738 189 L 297 202 L 272 351 L 669 352 L 553 345 L 365 375 L 378 144 L 74 324 L 527 375 L 473 353 L 361 227" fill="none" stroke="#ef4444" stroke-width="2" opacity="0.6"/><circle cx="453" cy="310" r="3" fill="#f87171"/><circle cx="309" cy="326" r="3" fill="#f87171"/><circle cx="58" cy="202" r="3" fill="#f87171"/><circle cx="395" cy="308" r="3" fill="#f87171"/><circle cx="267" cy="210" r="3" fill="#f87171"/><circle cx="455" cy="327" r="3" fill="#f87171"/><circle cx="425" cy="294" r="3" fill="#f87171"/><circle cx="321" cy="263" r="3" fill="#f87171"/><circle cx="691" cy="151" r="3" fill="#f87171"/><circle cx="521" cy="397" r="3" fill="#f87171"/></svg>